<svg xmlns="http://www.w3.org/2000/svg" width="20.328" height="24.365" viewBox="0 0 20.328 24.365"><defs><style>.a{fill:#fe765e;}</style></defs><g transform="translate(0 0)"><path class="a" d="M92.9,11.737a5.678,5.678,0,0,0,4.15-1.719,5.678,5.678,0,0,0,1.719-4.149A5.679,5.679,0,0,0,97.05,1.719a5.867,5.867,0,0,0-8.3,0,5.678,5.678,0,0,0-1.719,4.149,5.678,5.678,0,0,0,1.72,4.149A5.68,5.68,0,0,0,92.9,11.737Zm0,0" transform="translate(-82.89 -0.001)"/><path class="a" d="M20.279,254.283a14.494,14.494,0,0,0-.2-1.54A12.132,12.132,0,0,0,19.7,251.2a7.644,7.644,0,0,0-.636-1.444,5.447,5.447,0,0,0-.96-1.251,4.231,4.231,0,0,0-1.378-.866,4.764,4.764,0,0,0-1.76-.318,1.786,1.786,0,0,0-.954.4c-.286.186-.62.4-.994.641a5.692,5.692,0,0,1-1.286.566,4.992,4.992,0,0,1-3.145,0,5.681,5.681,0,0,1-1.285-.566c-.37-.236-.7-.452-.995-.641a1.784,1.784,0,0,0-.953-.4,4.758,4.758,0,0,0-1.76.319,4.226,4.226,0,0,0-1.379.866,5.448,5.448,0,0,0-.959,1.25A7.661,7.661,0,0,0,.624,251.2a12.158,12.158,0,0,0-.378,1.548,14.444,14.444,0,0,0-.2,1.54c-.032.466-.049.95-.049,1.439a4.046,4.046,0,0,0,1.2,3.061,4.326,4.326,0,0,0,3.1,1.13H16.03a4.325,4.325,0,0,0,3.1-1.13,4.044,4.044,0,0,0,1.2-3.061c0-.491-.017-.975-.049-1.439Zm0,0" transform="translate(0 -235.547)"/></g></svg>