<svg xmlns="http://www.w3.org/2000/svg" width="29.33" height="28.107" viewBox="0 0 29.33 28.107"><defs><style>.a{fill:#fff;}</style></defs><path class="a" d="M8.75,17.612V23.28a.916.916,0,0,0,1.655.543l3.316-4.512Z" transform="translate(1.943 3.911)"/><path class="a" d="M28.945.17A.917.917,0,0,0,27.989.1L.493,14.463a.917.917,0,0,0,.127,1.68l7.644,2.613L24.543,4.837l-12.6,15.177,12.811,4.379a.938.938,0,0,0,.3.049.916.916,0,0,0,.907-.781L29.32,1.052A.918.918,0,0,0,28.945.17Z" transform="translate(0)"/></svg>