<svg xmlns="http://www.w3.org/2000/svg" width="27.361" height="27.36" viewBox="0 0 27.361 27.36"><defs><style>.a{fill:#fe765e;}</style></defs><g transform="translate(0 0)"><path class="a" d="M21.7,27.36a2.408,2.408,0,0,1-2.405-2.4,2.379,2.379,0,0,1,.139-.8H12.741a2.405,2.405,0,1,1-4.5-.085,2.4,2.4,0,0,1-.528-4.426,4.016,4.016,0,0,1-.961-1.86L3.8,4.012A3.115,3.115,0,0,0,.8,1.6.8.8,0,1,1,.8,0,4.689,4.689,0,0,1,5.368,3.675l.941,4.394H26.56a.8.8,0,0,1,.769,1.025l-2.6,8.948a4,4,0,0,1-3.849,2.906H8.871a.8.8,0,1,0,0,1.6H24.9a.8.8,0,1,1,0,1.6h-.94A2.4,2.4,0,0,1,21.7,27.36Zm-.8-16.107a.8.8,0,0,0-.791.672l-.8,4.863a.8.8,0,0,0,.66.921.741.741,0,0,0,.131.011.8.8,0,0,0,.791-.671l.8-4.863a.8.8,0,0,0-.66-.922A.81.81,0,0,0,20.894,11.253Zm-4.808,0a.8.8,0,0,0-.8.8v4.863a.8.8,0,0,0,1.6,0V12.054A.8.8,0,0,0,16.085,11.253Zm-4.809,0a.816.816,0,0,0-.132.011.8.8,0,0,0-.66.921l.8,4.863a.8.8,0,0,0,.79.672.741.741,0,0,0,.131-.011.8.8,0,0,0,.661-.922l-.8-4.863A.8.8,0,0,0,11.276,11.253Z" transform="translate(0 0)"/></g></svg>