<svg xmlns="http://www.w3.org/2000/svg" width="75.906" height="75.911" viewBox="0 0 75.906 75.911"><defs><style>.a{fill:#fe765e;}</style></defs><g transform="translate(0 48.079)"><path class="a" d="M74.658,324.28H1.282a1.265,1.265,0,0,0-1.265,1.265,26.6,26.6,0,0,0,26.567,26.567H49.356a26.6,26.6,0,0,0,26.567-26.567A1.264,1.264,0,0,0,74.658,324.28Zm-25.3,25.3H26.584a24.067,24.067,0,0,1-24-22.772H73.36A24.067,24.067,0,0,1,49.356,349.582Z" transform="translate(-0.017 -324.28)"/></g><g transform="translate(26.567 0)"><path class="a" d="M217.16,17.725c0-.092,0-.185-.01-.325a5.253,5.253,0,0,0-3.541-4.467l1.432-1.432a6.775,6.775,0,0,0,.559-9.072,6.651,6.651,0,0,0-9.35-.9c-.161.133-.316.273-.472.429l-1.556,1.579A5.28,5.28,0,0,0,199.715.009a5.057,5.057,0,0,0-5.325,4.783c-.005.092-.006.185-.006.276V7.007a5.03,5.03,0,0,0-2.525-.681c-.091,0-.185,0-.325.01a5.243,5.243,0,0,0-4.74,5.27v1.721a5.043,5.043,0,0,0-2.525-.676c-.091,0-.183,0-.324.01a5.243,5.243,0,0,0-4.742,5.27V36.694a1.265,1.265,0,0,0,1.265,1.265h21.507a5.056,5.056,0,0,0,4.38-7.588h1.709a5.236,5.236,0,0,0,5.3-4.791,5.029,5.029,0,0,0-.692-2.831,5.06,5.06,0,0,0,4.493-5.024Zm-3.273,1.786a2.518,2.518,0,0,1-1.789.738h-3.8a1.265,1.265,0,1,0,0,2.53l.139,0a2.525,2.525,0,0,1,2.4,2.612,2.7,2.7,0,0,1-2.75,2.444h-6.11a1.265,1.265,0,1,0,0,2.53,2.53,2.53,0,0,1,0,5.061H181.733V17.911a2.7,2.7,0,0,1,2.4-2.725l.138,0a2.532,2.532,0,0,1,2.526,2.526v.009a1.264,1.264,0,0,0,1.264,1.265h0a1.265,1.265,0,0,0,1.265-1.264h0V11.586a2.7,2.7,0,0,1,2.4-2.725l.137,0a2.534,2.534,0,0,1,2.528,2.529v.008a1.264,1.264,0,0,0,1.264,1.265h0a1.265,1.265,0,0,0,1.265-1.264h0V5.068l0-.14a2.508,2.508,0,0,1,2.611-2.4,2.709,2.709,0,0,1,2.444,2.753v1.05a1.265,1.265,0,0,0,2.166.887l3.432-3.483c.094-.092.19-.18.29-.262a4.114,4.114,0,0,1,5.773.541,4.249,4.249,0,0,1-.371,5.684l-3.327,3.327a1.265,1.265,0,0,0,.894,2.16h1.117a2.7,2.7,0,0,1,2.679,2.4l0,.139A2.515,2.515,0,0,1,213.888,19.511Z" transform="translate(-179.202 -0.001)"/></g><g transform="translate(19.349 7.964)"><g transform="translate(0 0)"><rect class="a" width="50.095" height="2.53" transform="translate(0 35.422) rotate(-45)"/></g></g><g transform="translate(46.806 10.133)"><rect class="a" width="2.53" height="6.326"/></g><g transform="translate(39.215 16.459)"><rect class="a" width="2.53" height="7.591"/></g><g transform="translate(31.625 22.772)"><rect class="a" width="2.53" height="8.856"/></g><g transform="translate(48.071 15.194)"><rect class="a" width="6.325" height="2.53"/></g><g transform="translate(40.481 22.772)"><rect class="a" width="7.591" height="2.53"/></g><g transform="translate(32.89 30.362)"><rect class="a" width="8.856" height="2.53"/></g><g transform="translate(4.581 2.882)"><path class="a" d="M49.948,22.411l-.005-.008a5.837,5.837,0,0,0-8.085-1.614c-.083.054-.166.113-.259.182l-.455.347L40.705,21a5.82,5.82,0,1,0-6.934,9.263l1.065.832v.648a6.325,6.325,0,1,0,12.65,0V31.1l1.12-.874A5.824,5.824,0,0,0,49.948,22.411Zm-2.886,5.808-1.619,1.265a1.266,1.266,0,0,0-.486,1v1.265a3.8,3.8,0,1,1-7.59,0V30.482a1.262,1.262,0,0,0-.486-1l-1.619-1.265a1.246,1.246,0,0,0-.153-.1,3.289,3.289,0,1,1,3.912-5.225,1.334,1.334,0,0,0,.138.115l1.265.911a1.264,1.264,0,0,0,1.5-.019l1.333-1a3.272,3.272,0,0,1,3.8,5.324Z" transform="translate(-30.916 -19.441)"/></g><g transform="translate(27.83 1.265)"><rect class="a" width="2.53" height="2.53"/></g><g transform="translate(35.42 41.748)"><rect class="a" width="2.53" height="2.53"/></g><g transform="translate(68.315 7.597)"><path class="a" d="M460.787,51.24v2.53a2.53,2.53,0,1,1,0,5.06v2.53a5.06,5.06,0,0,0,0-10.121Z" transform="translate(-460.787 -51.24)"/></g><g transform="translate(2.528 18.989)"><rect class="a" width="2.53" height="2.53"/></g><g transform="translate(0 13.929)"><rect class="a" width="2.53" height="2.53"/></g><g transform="translate(44.278 40.488)"><path class="a" d="M303.724,273.083a5.066,5.066,0,0,0-5.06,5.06h2.53a2.53,2.53,0,1,1,5.06,0h2.53A5.066,5.066,0,0,0,303.724,273.083Z" transform="translate(-298.664 -273.083)"/></g><g transform="translate(0 25.307)"><g transform="translate(0)"><path class="a" d="M15.2,174.485H15.04a5.062,5.062,0,0,0-9.8,0H5.078a5.06,5.06,0,0,0,0,10.121H15.2a5.06,5.06,0,0,0,0-10.121Zm0,7.592H5.078a2.53,2.53,0,1,1,0-5.06H6.343a1.266,1.266,0,0,0,1.265-1.265,2.53,2.53,0,0,1,5.061,0,1.266,1.266,0,0,0,1.265,1.265H15.2a2.53,2.53,0,1,1,0,5.06Z" transform="translate(-0.018 -170.69)"/></g></g><g transform="translate(6.325 36.693)"><path class="a" d="M49.006,247.485h-5.06a1.266,1.266,0,0,0-1.265,1.265v5.06a1.265,1.265,0,0,0,1.265,1.265h5.06a1.265,1.265,0,0,0,1.265-1.265v-5.06A1.266,1.266,0,0,0,49.006,247.485Zm-1.265,5.06h-2.53v-2.53h2.53v2.53Z" transform="translate(-42.681 -247.485)"/></g><g transform="translate(63.255 32.898)"><path class="a" d="M430.451,221.887a3.8,3.8,0,1,0,3.8,3.8A3.8,3.8,0,0,0,430.451,221.887Zm0,5.062a1.265,1.265,0,1,1,1.265-1.265A1.266,1.266,0,0,1,430.451,226.949Z" transform="translate(-426.656 -221.887)"/></g><g transform="translate(58.194 27.837)"><path class="a" d="M401.381,187.756a8.856,8.856,0,1,0,8.856,8.856A8.866,8.866,0,0,0,401.381,187.756Zm0,15.182a6.326,6.326,0,1,1,6.325-6.326A6.333,6.333,0,0,1,401.381,202.938Z" transform="translate(-392.525 -187.756)"/></g></svg>