<svg xmlns="http://www.w3.org/2000/svg" width="192.274" height="39" viewBox="0 0 192.274 39"><defs><style>.a{fill:#fff;font-size:33px;font-family:SFProDisplay-Black, SF Pro Display;font-weight:800;letter-spacing:0.06em;}.b{fill:#fe765e;}</style></defs><g transform="translate(-53.649 -22)"><text class="a" transform="translate(102.924 53)"><tspan x="0" y="0">REST</tspan><tspan class="b" y="0">RO</tspan></text><g transform="translate(245.107 -82.61)"><g transform="translate(-191.458 110.61)"><path class="b" d="M-160.081,119.472a16.71,16.71,0,0,0-11.843-4.788,17.1,17.1,0,0,0-12.02,4.7c-3.406,3.424-4.765,9.09-4.937,13.78h33.914C-154.866,126.106-157.844,121.707-160.081,119.472Z" transform="translate(191.679 -110.261)"/><path class="b" d="M-169.449,114.313V114.3a3.687,3.687,0,0,0-3.687-3.687,3.687,3.687,0,0,0-3.687,3.687v.073a28.566,28.566,0,0,1,3.9-.275A27.329,27.329,0,0,1-169.449,114.313Z" transform="translate(192.713 -110.61)"/><path class="b" d="M-190.718,134.133a2.686,2.686,0,0,0,2.436,1.536h33.155a2.689,2.689,0,0,0,2.437-1.536l.74-1.568h-39.51Z" transform="translate(191.458 -108.728)"/></g></g></g></svg>